<svg xmlns="http://www.w3.org/2000/svg" xmlns:xlink="http://www.w3.org/1999/xlink" viewBox="0 0 23.47 23.47"><defs><style>.cls-1{fill:none;}.cls-2{fill:#999;}.cls-3{clip-path:url(#clip-path);}.cls-4{fill:#fff;}</style><clipPath id="clip-path"><rect class="cls-1" x="7.84" y="4.6" width="7.79" height="14.26"/></clipPath></defs><title>facebook</title><g id="Layer_2" data-name="Layer 2"><g id="Layer_1-2" data-name="Layer 1"><path class="cls-2" d="M18.72,23.47h-14A4.76,4.76,0,0,1,0,18.72v-14A4.76,4.76,0,0,1,4.75,0h14a4.76,4.76,0,0,1,4.75,4.75v14a4.76,4.76,0,0,1-4.75,4.75"/><g class="cls-3"><path class="cls-4" d="M15.26,4.59H13.41A3.25,3.25,0,0,0,10,8.09V9.71H8.13a.29.29,0,0,0-.29.29v2.35a.29.29,0,0,0,.29.29H10v5.92a.29.29,0,0,0,.29.29h2.42a.29.29,0,0,0,.29-.29V12.64h2.17a.29.29,0,0,0,.29-.29V10a.29.29,0,0,0-.29-.29H13V8.34c0-.66.16-1,1-1h1.25a.29.29,0,0,0,.29-.29V4.88a.29.29,0,0,0-.29-.29"/></g></g></g></svg>