<svg xmlns="http://www.w3.org/2000/svg" viewBox="0 0 23.47 23.47"><defs><style>.cls-1{fill:#999;}.cls-2{fill:#fff;}</style></defs><title>twitter</title><g id="Layer_2" data-name="Layer 2"><g id="Layer_1-2" data-name="Layer 1"><path class="cls-1" d="M18.72,23.47h-14A4.76,4.76,0,0,1,0,18.72v-14A4.76,4.76,0,0,1,4.75,0h14a4.76,4.76,0,0,1,4.75,4.75v14a4.76,4.76,0,0,1-4.75,4.75"/><path class="cls-2" d="M5.21,15.85A7.64,7.64,0,0,0,16.93,9.4c0-.11,0-.21,0-.31a6,6,0,0,0,1.33-1.36,6.19,6.19,0,0,1-1.52.39h0A2.84,2.84,0,0,0,17.9,6.62a9.24,9.24,0,0,1-1.3.54l-.39.12a2.68,2.68,0,0,0-4.64,1.83,2.7,2.7,0,0,0,.07.61,8.07,8.07,0,0,1-5.5-2.78s-1.28,1.75.76,3.55a2.76,2.76,0,0,1-1.16-.35A2.55,2.55,0,0,0,7.87,12.8a2.46,2.46,0,0,1-1.18,0,2.64,2.64,0,0,0,2.46,1.87,5.15,5.15,0,0,1-3.94,1.13Z"/></g></g></svg>