<svg xmlns="http://www.w3.org/2000/svg" viewBox="0 0 23.8 23.8"><defs><style>.cls-1{fill:#999;}.cls-2{fill:#fff;}</style></defs><title>linekdin</title><g id="Layer_2" data-name="Layer 2"><g id="Layer_1-2" data-name="Layer 1"><path class="cls-1" d="M19.05,23.8H4.75A4.76,4.76,0,0,1,0,19V4.75A4.76,4.76,0,0,1,4.75,0h14.3A4.76,4.76,0,0,1,23.8,4.75V19a4.76,4.76,0,0,1-4.75,4.75"/><path class="cls-2" d="M5.19,16.41H7A.46.46,0,0,0,7.5,16V7.85A.46.46,0,0,0,7,7.39H5.19a.46.46,0,0,0-.46.46V16a.46.46,0,0,0,.46.46"/><path class="cls-2" d="M5.19,13.19H7a.46.46,0,0,0,.46-.46V11.08A.46.46,0,0,0,7,10.61H5.19a.46.46,0,0,0-.46.46v1.64a.46.46,0,0,0,.46.46"/><path class="cls-2" d="M18.28,8.44a2.81,2.81,0,0,0-1.15-.84,4.29,4.29,0,0,0-4.85,1.09c-.17.19-.3.15-.3-.11V8a.46.46,0,0,0-.46-.46H9.87A.46.46,0,0,0,9.41,8v8.1a.46.46,0,0,0,.46.46h1.85a.46.46,0,0,0,.46-.46V13.25a9,9,0,0,1,.21-2.41,2,2,0,0,1,.79-1,2.23,2.23,0,0,1,1.3-.4,1.66,1.66,0,0,1,1,.28,1.54,1.54,0,0,1,.58.78,8.28,8.28,0,0,1,.18,2.2v3.42a.46.46,0,0,0,.46.46h1.85a.46.46,0,0,0,.46-.46V11.48a8.68,8.68,0,0,0-.15-1.87,3.07,3.07,0,0,0-.54-1.17"/></g></g></svg>