<svg xmlns="http://www.w3.org/2000/svg" viewBox="0 0 178.64 23.66"><defs><style>.cls-1{fill:#b9131a;}.cls-2{fill:#58595b;}</style></defs><title>logo</title><g id="Layer_2" data-name="Layer 2"><g id="Layer_1-2" data-name="Layer 1"><polygon class="cls-1" points="26.52 23.26 34.49 6.16 36.59 1.67 38.67 6.13 46.66 23.26 42.78 23.24 36.59 8.97 30.2 23.26 26.52 23.26"/><polygon class="cls-1" points="29.79 12.36 39.83 16.66 27.05 18.58 29.79 12.36"/><path class="cls-2" d="M72.35,22.08v-3a5.79,5.79,0,0,0,1.23.81,9.89,9.89,0,0,0,1.51.61,11.94,11.94,0,0,0,1.59.38,8.88,8.88,0,0,0,1.48.14,5.78,5.78,0,0,0,3.49-.87,2.93,2.93,0,0,0,1.15-2.49,2.93,2.93,0,0,0-.38-1.52A4.34,4.34,0,0,0,81.34,15a10.63,10.63,0,0,0-1.6-1l-2-1q-1.13-.57-2.11-1.16a9.18,9.18,0,0,1-1.7-1.29,5.41,5.41,0,0,1-1.14-1.6,5,5,0,0,1-.41-2.1A4.94,4.94,0,0,1,73,4.2a5.54,5.54,0,0,1,1.7-1.8,7.68,7.68,0,0,1,2.4-1.05A11,11,0,0,1,79.88,1a10.53,10.53,0,0,1,4.65.77V4.61a8.44,8.44,0,0,0-4.91-1.32A8.07,8.07,0,0,0,78,3.46,4.67,4.67,0,0,0,76.49,4a3.27,3.27,0,0,0-1.05,1A2.68,2.68,0,0,0,75,6.54,3.1,3.1,0,0,0,75.34,8a3.5,3.5,0,0,0,.91,1.1,9,9,0,0,0,1.47,1q.87.47,2,1t2.2,1.2a10.06,10.06,0,0,1,1.82,1.4A6.22,6.22,0,0,1,85,15.36a4.79,4.79,0,0,1,.46,2.14,5.43,5.43,0,0,1-.63,2.7A5.13,5.13,0,0,1,83.12,22a7.36,7.36,0,0,1-2.45,1,13.36,13.36,0,0,1-2.92.31,12,12,0,0,1-1.26-.08Q75.74,23.15,75,23a12.29,12.29,0,0,1-1.48-.39A4.56,4.56,0,0,1,72.35,22.08Z"/><path class="cls-2" d="M94.12,23.31a7.15,7.15,0,0,1-5.46-2.16,8,8,0,0,1-2-5.73,8.33,8.33,0,0,1,2.12-6.07,7.63,7.63,0,0,1,5.74-2.18,6.92,6.92,0,0,1,5.38,2.12,8.42,8.42,0,0,1,1.93,5.89,8.28,8.28,0,0,1-2.09,5.91A7.3,7.3,0,0,1,94.12,23.31ZM94.3,9.25a4.69,4.69,0,0,0-3.76,1.62,6.64,6.64,0,0,0-1.39,4.46,6.29,6.29,0,0,0,1.4,4.32,4.76,4.76,0,0,0,3.75,1.58A4.51,4.51,0,0,0,98,19.68a6.73,6.73,0,0,0,1.29-4.41A6.85,6.85,0,0,0,98,10.81,4.49,4.49,0,0,0,94.3,9.25Z"/><path class="cls-2" d="M110.87,2.5a3.29,3.29,0,0,0-1.64-.41q-2.59,0-2.59,3.27V7.74h3.62V9.85h-3.62V23.16h-2.45V9.85h-2.64V7.74h2.64V5.24a5.19,5.19,0,0,1,1.4-3.83A4.73,4.73,0,0,1,109.08,0a4.84,4.84,0,0,1,1.79.27Z"/><path class="cls-2" d="M119.84,23a4.76,4.76,0,0,1-2.3.48q-4.05,0-4.05-4.52V9.85h-2.65V7.74h2.65V4l2.47-.8V7.74h3.88V9.85H116v8.69a3.59,3.59,0,0,0,.53,2.21,2.1,2.1,0,0,0,1.75.66,2.59,2.59,0,0,0,1.61-.51Z"/><path class="cls-2" d="M141.79,7.88,137.17,23.3h-2.56l-3.18-11a7.11,7.11,0,0,1-.24-1.43h-.06a6.73,6.73,0,0,1-.32,1.4L127.36,23.3h-2.47L120.23,7.88h2.59L126,19.48a7.14,7.14,0,0,1,.21,1.39h.12a6.55,6.55,0,0,1,.27-1.42l3.55-11.56h2.26l3.19,11.62a8.31,8.31,0,0,1,.23,1.39H136a6.4,6.4,0,0,1,.26-1.39l3.13-11.62Z"/><path class="cls-1" d="M62.07,6.1a9.16,9.16,0,0,1,1.74,6A8.73,8.73,0,0,1,62,17.93,6.11,6.11,0,0,1,57.13,20a5.82,5.82,0,0,1-4.73-2.2A8.84,8.84,0,0,1,50.59,12,8.76,8.76,0,0,1,52.45,6.2,6,6,0,0,1,57.28,4,5.88,5.88,0,0,1,62.07,6.1Zm2.64,14q2.85-3.07,2.85-8.36a11.16,11.16,0,0,0-2.78-7.88,9.5,9.5,0,0,0-7.33-3,10.05,10.05,0,0,0-7.77,3.1,11.78,11.78,0,0,0-2.86,8.31,11.12,11.12,0,0,0,2.81,7.88,9.71,9.71,0,0,0,7.48,3A9.87,9.87,0,0,0,64.71,20.09Z"/><path class="cls-1" d="M23.19,1.56H18.33S12,17.28,11.64,18.41h-.08C11.43,17.87,5,1.56,5,1.56H0V23.16H3.31S3.27,5.85,3.19,5h.06c.2,1,7,18.17,7,18.17h2.47S19.57,5.93,19.79,5h.06c-.14,1.66-.21,18.17-.21,18.17h3.55Z"/><path class="cls-2" d="M154,23.3h-2.47V20.89h-.06a5.17,5.17,0,0,1-4.74,2.77,5.07,5.07,0,0,1-3.61-1.22,4.23,4.23,0,0,1-1.3-3.24q0-4.32,5.09-5l4.62-.65q0-3.93-3.18-3.93a7.59,7.59,0,0,0-5,1.9V9a9.55,9.55,0,0,1,5.24-1.45q5.43,0,5.44,5.75Zm-2.47-7.94-3.72.51a6.06,6.06,0,0,0-2.59.85,2.46,2.46,0,0,0-.87,2.16,2.35,2.35,0,0,0,.81,1.84,3.11,3.11,0,0,0,2.15.72,4,4,0,0,0,3-1.29,4.6,4.6,0,0,0,1.2-3.26Z"/><path class="cls-2" d="M164.74,10.37a3,3,0,0,0-1.87-.5,3.15,3.15,0,0,0-2.64,1.49,6.9,6.9,0,0,0-1.06,4.07v7.86H156.7V7.88h2.47v3.18h.06a5.39,5.39,0,0,1,1.61-2.54,3.67,3.67,0,0,1,2.42-.91,4,4,0,0,1,1.47.21Z"/><path class="cls-2" d="M178.64,15.93H167.75a5.76,5.76,0,0,0,1.39,4,4.77,4.77,0,0,0,3.64,1.4,7.58,7.58,0,0,0,4.79-1.72v2.32a9,9,0,0,1-5.38,1.48,6.52,6.52,0,0,1-5.13-2.1,8.59,8.59,0,0,1-1.87-5.91,8.44,8.44,0,0,1,2-5.87,6.55,6.55,0,0,1,5.07-2.27,5.8,5.8,0,0,1,4.68,2,8.16,8.16,0,0,1,1.66,5.44Zm-2.53-2a5,5,0,0,0-1-3.33,3.51,3.51,0,0,0-2.82-1.19,4,4,0,0,0-3,1.25A5.67,5.67,0,0,0,167.78,14Z"/><polygon class="cls-2" points="109.27 7.74 122.82 7.74 123.16 9.85 108.68 9.85 109.27 7.74"/><polygon class="cls-1" points="66.19 23.26 62.17 23.26 56.64 16.21 60.7 16.21 66.19 23.26"/></g></g></svg>