<?xml version="1.0" encoding="utf-8"?>
<!-- Generator: Adobe Illustrator 17.1.0, SVG Export Plug-In . SVG Version: 6.00 Build 0)  -->
<!DOCTYPE svg PUBLIC "-//W3C//DTD SVG 1.1//EN" "http://www.w3.org/Graphics/SVG/1.1/DTD/svg11.dtd">
<svg version="1.1" id="Layer_1" xmlns="http://www.w3.org/2000/svg" xmlns:xlink="http://www.w3.org/1999/xlink" x="0px" y="0px"
	 viewBox="0 0 20 20" enable-background="new 0 0 20 20" xml:space="preserve">
<g>
	<polygon fill="#2A2A2A" points="8.749,5.116 11.527,5.115 8.262,8.664 16.009,8.66 16.082,11.218 8.334,11.222 11.858,14.883 
		8.812,14.885 3.918,10.003 	"/>
	<path fill="#2A2A2A" d="M10,18.55c-4.715,0-8.55-3.835-8.55-8.55S5.285,1.45,10,1.45s8.55,3.835,8.55,8.55S14.715,18.55,10,18.55
		 M10,19.5c5.247,0,9.5-4.253,9.5-9.5S15.247,0.5,10,0.5c-5.247,0-9.5,4.253-9.5,9.5S4.753,19.5,10,19.5L10,19.5z"/>
</g>
</svg>
