<?xml version="1.0" encoding="utf-8"?>
<!-- Generator: Adobe Illustrator 17.1.0, SVG Export Plug-In . SVG Version: 6.00 Build 0)  -->
<!DOCTYPE svg PUBLIC "-//W3C//DTD SVG 1.1//EN" "http://www.w3.org/Graphics/SVG/1.1/DTD/svg11.dtd">
<svg version="1.1" id="Layer_1" xmlns="http://www.w3.org/2000/svg" xmlns:xlink="http://www.w3.org/1999/xlink" x="0px" y="0px"
	 viewBox="0 0 20 20" enable-background="new 0 0 20 20" xml:space="preserve">
<g>
	<polygon fill="#2A2A2A" points="11.251,14.884 8.473,14.885 11.738,11.336 3.991,11.34 3.918,8.782 11.666,8.778 8.142,5.117 
		11.188,5.115 16.082,9.997 	"/>
	<path fill="#2A2A2A" d="M10,1.45c4.715,0,8.55,3.835,8.55,8.55s-3.835,8.55-8.55,8.55S1.45,14.715,1.45,10S5.285,1.45,10,1.45
		 M10,0.5c-5.247,0-9.5,4.253-9.5,9.5s4.253,9.5,9.5,9.5c5.247,0,9.5-4.253,9.5-9.5S15.247,0.5,10,0.5L10,0.5z"/>
</g>
</svg>
